<svg id="svg" xmlns="http://www.w3.org/2000/svg" xmlns:xlink="http://www.w3.org/1999/xlink" width="400" height="88.5396201702685" viewBox="0, 0, 400,88.5396201702685"><g id="svgg"><path id="path0" d="M22.491 15.292 C 22.486 15.452,22.418 16.183,22.339 16.917 C 22.134 18.841,22.365 20.481,23.083 22.194 L 23.688 23.638 24.969 23.916 C 25.674 24.069,26.813 24.343,27.500 24.526 C 28.188 24.708,30.400 25.262,32.417 25.755 C 37.376 26.969,38.461 27.275,38.167 27.377 C 38.029 27.425,36.004 27.700,33.667 27.989 C 30.285 28.407,26.478 28.917,26.208 28.989 C 26.103 29.017,26.183 29.533,26.332 29.794 C 26.424 29.953,26.648 30.496,26.831 31.000 C 27.491 32.816,27.421 32.784,31.333 33.077 C 33.212 33.218,35.200 33.369,35.750 33.413 C 36.300 33.457,37.837 33.574,39.167 33.673 C 40.496 33.772,41.771 33.879,42.000 33.913 C 42.229 33.946,42.792 33.986,43.250 34.003 C 44.061 34.033,44.018 34.056,41.667 34.841 C 36.471 36.574,30.468 38.643,30.381 38.730 C 29.782 39.329,34.154 45.577,34.947 45.254 C 35.230 45.139,40.000 44.518,40.000 44.596 C 40.000 44.616,39.606 44.881,39.125 45.185 C 38.644 45.490,38.212 45.779,38.167 45.828 C 38.121 45.877,37.708 46.119,37.250 46.366 C 35.643 47.231,36.592 47.828,38.333 47.047 C 38.746 46.861,39.701 46.475,40.456 46.187 C 41.211 45.900,42.223 45.485,42.706 45.266 C 44.679 44.369,44.846 44.318,44.626 44.670 C 44.518 44.843,44.407 44.962,44.379 44.935 C 44.330 44.886,42.229 46.831,40.042 48.950 L 38.976 49.983 39.529 50.491 C 40.863 51.715,45.968 54.810,46.226 54.552 C 46.285 54.493,46.333 54.520,46.333 54.612 C 46.333 54.704,46.631 54.878,46.995 54.998 C 47.666 55.220,49.000 54.665,49.000 54.164 C 49.000 54.074,49.071 54.000,49.159 54.000 C 49.304 54.000,50.022 53.508,52.224 51.899 C 53.252 51.147,53.269 51.190,52.455 52.500 C 51.177 54.560,50.182 56.415,50.299 56.523 C 50.462 56.673,51.864 57.379,53.202 57.984 C 55.425 58.990,58.636 59.714,62.633 60.110 L 63.683 60.214 62.550 60.859 C 61.927 61.214,61.304 61.580,61.167 61.671 C 60.878 61.863,58.633 63.170,56.876 64.169 C 56.211 64.547,55.558 64.966,55.423 65.101 C 55.289 65.235,55.120 65.350,55.048 65.357 C 54.882 65.371,53.560 66.111,52.965 66.521 C 52.717 66.693,52.453 66.833,52.379 66.833 C 52.305 66.833,51.983 67.009,51.664 67.224 C 51.344 67.439,50.708 67.822,50.250 68.075 C 49.792 68.328,48.967 68.784,48.417 69.088 C 47.532 69.577,46.592 69.841,44.917 70.071 C 44.642 70.108,43.198 70.145,41.708 70.153 L 39.000 70.167 39.000 71.012 L 39.000 71.857 39.958 71.755 C 40.485 71.699,41.179 71.619,41.500 71.577 L 42.083 71.501 41.500 71.734 C 41.179 71.863,40.467 72.106,39.917 72.275 C 39.040 72.545,38.910 72.640,38.864 73.042 C 38.800 73.599,38.893 73.606,40.417 73.154 C 41.059 72.964,43.046 72.408,44.833 71.918 C 46.621 71.428,49.583 70.611,51.417 70.103 C 57.716 68.357,61.255 67.382,64.083 66.612 C 65.642 66.188,67.404 65.690,68.000 65.505 C 68.596 65.321,70.096 64.905,71.333 64.582 C 72.571 64.258,73.696 63.946,73.833 63.888 C 73.971 63.830,74.158 63.772,74.250 63.760 C 74.342 63.748,74.717 63.646,75.083 63.534 C 75.450 63.422,77.025 62.983,78.583 62.558 C 80.142 62.134,82.879 61.382,84.667 60.887 C 86.454 60.393,88.892 59.724,90.083 59.401 C 91.275 59.078,92.925 58.624,93.750 58.393 C 94.575 58.161,96.188 57.714,97.333 57.398 C 98.479 57.083,99.529 56.777,99.667 56.719 C 99.804 56.661,99.968 56.624,100.032 56.637 C 100.095 56.650,100.845 56.446,101.698 56.185 C 102.552 55.924,104.357 55.423,105.711 55.071 C 108.366 54.381,108.410 54.341,107.373 53.583 C 104.236 51.291,101.090 50.470,95.306 50.437 C 91.788 50.417,91.086 50.507,91.731 50.895 C 93.927 52.215,93.749 53.794,91.209 55.523 C 90.773 55.819,90.379 56.111,90.333 56.172 C 90.200 56.349,88.134 57.136,87.083 57.410 C 83.745 58.279,79.942 58.093,76.590 56.896 C 74.252 56.061,71.467 54.332,69.141 52.271 C 68.714 51.893,68.264 51.500,68.141 51.399 C 67.723 51.055,65.928 48.972,65.523 48.359 C 65.301 48.024,64.987 47.600,64.826 47.417 C 63.930 46.397,61.920 41.655,61.577 39.750 C 61.510 39.383,61.415 39.012,61.364 38.925 C 61.314 38.838,61.257 38.613,61.237 38.425 C 61.218 38.237,61.160 37.896,61.108 37.667 C 60.930 36.873,60.686 34.575,60.578 32.667 C 60.385 29.283,58.489 26.297,54.750 23.486 C 53.646 22.656,52.118 21.667,51.940 21.667 C 51.878 21.667,51.547 21.493,51.205 21.281 C 48.318 19.489,39.442 17.046,31.667 15.904 C 25.378 14.980,22.507 14.788,22.491 15.292 M224.700 30.612 C 223.598 31.155,223.658 30.008,223.706 49.593 L 223.750 67.361 224.294 67.847 L 224.839 68.333 228.103 68.333 L 231.367 68.333 231.933 67.767 L 232.500 67.200 232.500 57.292 C 232.500 47.906,232.516 47.370,232.805 47.109 C 233.234 46.720,233.371 46.757,233.955 47.417 C 234.239 47.737,234.427 48.000,234.373 48.000 C 234.319 48.000,234.426 48.169,234.610 48.375 C 234.971 48.779,237.054 51.751,237.556 52.579 C 237.725 52.856,237.950 53.158,238.056 53.250 C 238.163 53.342,238.616 53.974,239.063 54.654 C 239.509 55.335,239.942 55.973,240.024 56.071 C 240.197 56.280,242.540 59.607,243.202 60.583 C 243.450 60.950,244.103 61.887,244.652 62.667 C 245.201 63.446,246.008 64.608,246.444 65.250 C 246.881 65.892,247.409 66.603,247.619 66.832 C 247.829 67.060,248.000 67.298,248.000 67.361 C 248.000 68.024,249.808 68.353,253.161 68.302 L 256.528 68.250 257.016 67.703 L 257.504 67.156 257.461 49.583 L 257.417 32.009 257.038 31.630 C 256.586 31.178,250.577 30.889,249.663 31.275 C 248.629 31.711,248.667 31.317,248.667 41.715 C 248.667 47.927,248.607 51.300,248.494 51.511 C 248.192 52.076,247.552 51.916,247.040 51.147 C 246.789 50.770,246.418 50.283,246.216 50.064 C 246.014 49.845,245.886 49.667,245.931 49.667 C 245.976 49.667,245.933 49.573,245.835 49.458 C 245.736 49.344,245.198 48.575,244.638 47.750 C 243.461 46.015,242.376 44.440,241.130 42.655 C 240.646 41.961,239.450 40.232,238.473 38.813 C 237.495 37.393,236.576 36.133,236.431 36.012 C 236.286 35.891,236.167 35.726,236.167 35.644 C 236.167 35.502,234.972 33.679,234.543 33.167 C 234.428 33.029,234.090 32.542,233.792 32.083 C 232.808 30.570,232.068 30.333,228.345 30.337 C 225.828 30.340,225.147 30.392,224.700 30.612 M112.121 31.333 C 111.249 31.746,111.172 32.091,111.169 35.588 C 111.166 40.260,110.782 40.000,117.666 40.000 L 122.682 40.000 123.091 40.409 L 123.500 40.818 123.500 53.898 C 123.500 67.731,123.495 67.650,124.318 68.075 C 124.897 68.375,130.492 68.455,131.230 68.174 C 132.217 67.799,132.175 68.432,132.169 54.044 C 132.163 41.299,132.173 40.862,132.483 40.479 L 132.803 40.083 138.166 40.000 L 143.528 39.917 144.023 39.362 L 144.519 38.807 144.468 35.407 C 144.417 32.021,144.415 32.005,143.995 31.585 L 143.572 31.163 128.111 31.123 C 114.656 31.089,112.580 31.116,112.121 31.333 M151.733 31.142 C 151.305 31.222,150.882 31.618,150.582 32.219 C 150.194 32.997,150.208 66.531,150.597 67.310 C 151.076 68.270,151.477 68.359,155.077 68.301 C 159.644 68.229,159.331 68.797,159.332 60.567 C 159.333 55.113,159.354 54.700,159.638 54.442 C 160.169 53.962,170.992 54.030,171.433 54.517 C 171.729 54.845,171.755 55.270,171.833 61.059 C 171.941 69.027,171.526 68.383,176.490 68.302 L 179.695 68.250 180.183 67.703 L 180.671 67.156 180.627 49.583 L 180.583 32.009 180.204 31.630 C 179.842 31.267,179.680 31.246,176.554 31.167 C 171.445 31.037,171.833 30.457,171.833 38.220 C 171.833 44.672,171.785 45.048,170.918 45.264 C 169.777 45.549,159.805 45.243,159.613 44.917 C 159.476 44.684,159.391 42.708,159.333 38.386 L 159.250 32.188 158.767 31.684 L 158.284 31.180 155.167 31.132 C 153.452 31.105,151.907 31.110,151.733 31.142 M187.989 31.278 C 186.934 31.722,186.990 30.771,187.039 47.433 L 187.083 62.583 187.470 63.540 C 188.183 65.307,190.589 67.940,191.165 67.584 C 191.242 67.537,191.330 67.570,191.361 67.659 C 191.647 68.485,210.729 68.673,212.667 67.870 C 214.578 67.077,216.279 65.309,216.950 63.417 C 217.295 62.444,217.511 32.988,217.179 32.116 C 216.841 31.227,216.503 31.152,212.857 31.152 C 209.150 31.152,208.854 31.224,208.512 32.203 C 208.391 32.552,208.333 36.821,208.333 45.522 L 208.333 58.328 207.847 58.872 L 207.361 59.417 202.507 59.470 C 197.002 59.530,196.405 59.423,196.013 58.300 C 195.890 57.947,195.833 53.693,195.833 44.884 L 195.833 31.984 195.392 31.575 C 195.150 31.351,194.831 31.165,194.684 31.163 C 189.547 31.086,188.399 31.106,187.989 31.278 M264.164 31.275 C 263.107 31.719,263.167 30.779,263.167 46.877 C 263.167 62.880,263.061 64.920,262.069 68.044 C 261.978 68.330,262.523 68.341,274.862 68.297 L 287.750 68.250 288.667 67.873 C 290.658 67.053,292.132 65.532,292.941 63.465 L 293.417 62.250 293.417 49.661 C 293.417 35.849,293.493 37.019,292.448 34.833 C 291.660 33.187,289.204 31.431,287.415 31.237 C 285.640 31.043,264.633 31.078,264.164 31.275 M300.161 31.215 C 298.920 31.536,298.994 30.311,299.041 49.889 L 299.083 67.361 299.628 67.847 L 300.172 68.333 303.397 68.333 C 307.920 68.333,308.000 68.255,308.000 63.825 L 308.000 61.191 308.458 60.831 C 308.888 60.493,309.062 60.474,311.362 60.527 C 314.309 60.595,314.458 60.669,315.363 62.505 C 315.700 63.190,316.037 63.828,316.113 63.923 C 316.188 64.018,316.274 64.206,316.304 64.340 C 316.433 64.921,317.841 67.622,318.171 67.921 C 318.502 68.221,318.824 68.254,321.857 68.301 C 325.711 68.361,326.168 68.234,326.498 67.006 C 326.702 66.251,326.727 66.338,325.482 63.555 C 324.262 60.827,324.300 60.500,325.834 60.500 C 326.882 60.500,328.571 59.211,328.999 58.085 C 329.248 57.431,329.235 37.372,328.985 36.445 C 328.482 34.578,325.856 31.491,325.145 31.930 C 325.065 31.979,325.000 31.942,325.000 31.848 C 325.000 31.233,302.322 30.655,300.161 31.215 M349.246 31.167 L 340.242 31.250 339.163 31.787 C 337.091 32.818,336.010 34.060,335.220 36.318 L 334.835 37.417 334.846 52.167 C 334.860 70.288,334.320 68.327,339.300 68.331 C 343.749 68.334,343.667 68.410,343.667 64.330 C 343.667 60.250,343.247 60.500,350.100 60.500 C 356.783 60.500,356.354 60.229,356.325 64.421 C 356.298 68.398,356.226 68.334,360.700 68.333 C 364.055 68.332,364.646 68.182,365.004 67.239 C 365.642 65.562,365.125 35.895,364.451 35.466 C 364.340 35.396,364.307 35.337,364.377 35.336 C 364.651 35.330,363.589 33.870,362.694 33.021 C 360.655 31.086,360.483 31.063,349.246 31.167 M283.386 40.269 C 284.530 40.815,284.500 40.559,284.500 49.643 C 284.500 58.576,284.516 58.422,283.513 59.046 C 282.640 59.589,272.630 59.631,272.237 59.093 C 271.850 58.565,271.888 40.734,272.276 40.305 C 272.672 39.867,282.478 39.836,283.386 40.269 M319.627 40.570 L 320.250 41.141 320.299 45.564 C 320.372 52.069,320.809 51.665,313.697 51.666 C 310.532 51.666,308.524 51.602,308.322 51.494 C 307.925 51.282,307.810 40.590,308.200 40.200 C 308.347 40.053,309.801 40.000,313.702 40.000 L 319.005 40.000 319.627 40.570 M355.078 40.237 C 356.172 40.694,356.250 41.061,356.250 45.750 C 356.250 52.005,356.614 51.667,349.879 51.667 C 343.295 51.667,343.690 52.033,343.677 45.917 C 343.664 39.599,343.248 40.001,349.797 40.001 C 353.495 40.000,354.633 40.051,355.078 40.237 M368.500 64.167 C 368.500 64.444,368.611 64.500,369.167 64.500 L 369.833 64.500 369.833 66.417 L 369.833 68.333 370.333 68.333 L 370.833 68.333 370.833 66.417 L 370.833 64.500 371.500 64.500 C 372.056 64.500,372.167 64.444,372.167 64.167 C 372.167 63.854,372.056 63.833,370.333 63.833 C 368.611 63.833,368.500 63.854,368.500 64.167 M372.667 66.094 L 372.667 68.355 373.125 68.303 C 373.576 68.251,373.585 68.228,373.667 66.866 L 373.750 65.482 374.163 66.241 C 374.486 66.834,374.669 67.000,375.000 67.000 C 375.331 67.000,375.514 66.834,375.837 66.241 L 376.250 65.482 376.333 66.866 C 376.415 68.228,376.424 68.251,376.875 68.303 L 377.333 68.355 377.333 66.094 L 377.333 63.833 376.699 63.833 C 376.105 63.833,376.040 63.885,375.658 64.662 C 375.211 65.570,374.879 65.820,374.714 65.372 C 374.350 64.385,373.824 63.833,373.248 63.833 L 372.667 63.833 372.667 66.094 " stroke="none" fill="#3c64e4" fill-rule="evenodd"></path><path id="path1" d="M120.292 31.125 C 124.440 31.150,131.227 31.150,135.375 31.125 C 139.523 31.100,136.129 31.080,127.833 31.080 C 119.537 31.080,116.144 31.100,120.292 31.125 M153.550 31.124 C 154.356 31.155,155.631 31.155,156.383 31.124 C 157.135 31.093,156.475 31.068,154.917 31.068 C 153.358 31.068,152.743 31.094,153.550 31.124 M174.883 31.124 C 175.690 31.155,176.965 31.155,177.717 31.124 C 178.468 31.093,177.808 31.068,176.250 31.068 C 174.692 31.068,174.077 31.094,174.883 31.124 M190.050 31.124 C 190.856 31.155,192.131 31.155,192.883 31.124 C 193.635 31.093,192.975 31.068,191.417 31.068 C 189.858 31.068,189.243 31.094,190.050 31.124 M211.458 31.124 C 212.215 31.155,213.452 31.155,214.208 31.124 C 214.965 31.093,214.346 31.068,212.833 31.068 C 211.321 31.068,210.702 31.093,211.458 31.124 M251.717 31.124 C 252.523 31.155,253.798 31.155,254.550 31.124 C 255.302 31.093,254.642 31.068,253.083 31.068 C 251.525 31.068,250.910 31.094,251.717 31.124 M270.220 31.125 C 273.229 31.150,278.104 31.150,281.054 31.125 C 284.003 31.099,281.542 31.079,275.583 31.079 C 269.625 31.079,267.212 31.099,270.220 31.125 M306.125 31.125 C 309.081 31.150,313.919 31.150,316.875 31.125 C 319.831 31.099,317.412 31.079,311.500 31.079 C 305.587 31.079,303.169 31.099,306.125 31.125 M345.875 31.125 C 348.144 31.151,351.856 31.151,354.125 31.125 C 356.394 31.099,354.537 31.077,350.000 31.077 C 345.462 31.077,343.606 31.099,345.875 31.125 M329.245 47.500 C 329.245 52.587,329.266 54.669,329.292 52.125 C 329.317 49.581,329.317 45.419,329.292 42.875 C 329.266 40.331,329.245 42.412,329.245 47.500 M132.246 53.667 C 132.246 60.771,132.267 63.677,132.292 60.125 C 132.317 56.573,132.317 50.760,132.292 47.208 C 132.267 43.656,132.246 46.563,132.246 53.667 M356.238 45.833 C 356.238 47.987,356.262 48.869,356.291 47.792 C 356.320 46.715,356.320 44.952,356.291 43.875 C 356.262 42.798,356.238 43.679,356.238 45.833 M356.234 64.000 C 356.234 65.421,356.259 66.002,356.291 65.292 C 356.322 64.581,356.322 63.419,356.291 62.708 C 356.259 61.998,356.234 62.579,356.234 64.000 " stroke="none" fill="#4064e4" fill-rule="evenodd"></path><path id="path2" d="M120.292 31.125 C 124.440 31.150,131.227 31.150,135.375 31.125 C 139.523 31.100,136.129 31.080,127.833 31.080 C 119.537 31.080,116.144 31.100,120.292 31.125 M153.550 31.124 C 154.356 31.155,155.631 31.155,156.383 31.124 C 157.135 31.093,156.475 31.068,154.917 31.068 C 153.358 31.068,152.743 31.094,153.550 31.124 M174.883 31.124 C 175.690 31.155,176.965 31.155,177.717 31.124 C 178.468 31.093,177.808 31.068,176.250 31.068 C 174.692 31.068,174.077 31.094,174.883 31.124 M190.050 31.124 C 190.856 31.155,192.131 31.155,192.883 31.124 C 193.635 31.093,192.975 31.068,191.417 31.068 C 189.858 31.068,189.243 31.094,190.050 31.124 M211.458 31.124 C 212.215 31.155,213.452 31.155,214.208 31.124 C 214.965 31.093,214.346 31.068,212.833 31.068 C 211.321 31.068,210.702 31.093,211.458 31.124 M251.717 31.124 C 252.523 31.155,253.798 31.155,254.550 31.124 C 255.302 31.093,254.642 31.068,253.083 31.068 C 251.525 31.068,250.910 31.094,251.717 31.124 M270.220 31.125 C 273.229 31.150,278.104 31.150,281.054 31.125 C 284.003 31.099,281.542 31.079,275.583 31.079 C 269.625 31.079,267.212 31.099,270.220 31.125 M306.125 31.125 C 309.081 31.150,313.919 31.150,316.875 31.125 C 319.831 31.099,317.412 31.079,311.500 31.079 C 305.587 31.079,303.169 31.099,306.125 31.125 M345.875 31.125 C 348.144 31.151,351.856 31.151,354.125 31.125 C 356.394 31.099,354.537 31.077,350.000 31.077 C 345.462 31.077,343.606 31.099,345.875 31.125 M329.245 47.500 C 329.245 52.587,329.266 54.669,329.292 52.125 C 329.317 49.581,329.317 45.419,329.292 42.875 C 329.266 40.331,329.245 42.412,329.245 47.500 M132.246 53.667 C 132.246 60.771,132.267 63.677,132.292 60.125 C 132.317 56.573,132.317 50.760,132.292 47.208 C 132.267 43.656,132.246 46.563,132.246 53.667 M356.238 45.833 C 356.238 47.987,356.262 48.869,356.291 47.792 C 356.320 46.715,356.320 44.952,356.291 43.875 C 356.262 42.798,356.238 43.679,356.238 45.833 M356.234 64.000 C 356.234 65.421,356.259 66.002,356.291 65.292 C 356.322 64.581,356.322 63.419,356.291 62.708 C 356.259 61.998,356.234 62.579,356.234 64.000 " stroke="none" fill="#4064e4" fill-rule="evenodd"></path><path id="path3" d="M120.292 31.125 C 124.440 31.150,131.227 31.150,135.375 31.125 C 139.523 31.100,136.129 31.080,127.833 31.080 C 119.537 31.080,116.144 31.100,120.292 31.125 M153.550 31.124 C 154.356 31.155,155.631 31.155,156.383 31.124 C 157.135 31.093,156.475 31.068,154.917 31.068 C 153.358 31.068,152.743 31.094,153.550 31.124 M174.883 31.124 C 175.690 31.155,176.965 31.155,177.717 31.124 C 178.468 31.093,177.808 31.068,176.250 31.068 C 174.692 31.068,174.077 31.094,174.883 31.124 M190.050 31.124 C 190.856 31.155,192.131 31.155,192.883 31.124 C 193.635 31.093,192.975 31.068,191.417 31.068 C 189.858 31.068,189.243 31.094,190.050 31.124 M211.458 31.124 C 212.215 31.155,213.452 31.155,214.208 31.124 C 214.965 31.093,214.346 31.068,212.833 31.068 C 211.321 31.068,210.702 31.093,211.458 31.124 M251.717 31.124 C 252.523 31.155,253.798 31.155,254.550 31.124 C 255.302 31.093,254.642 31.068,253.083 31.068 C 251.525 31.068,250.910 31.094,251.717 31.124 M270.220 31.125 C 273.229 31.150,278.104 31.150,281.054 31.125 C 284.003 31.099,281.542 31.079,275.583 31.079 C 269.625 31.079,267.212 31.099,270.220 31.125 M306.125 31.125 C 309.081 31.150,313.919 31.150,316.875 31.125 C 319.831 31.099,317.412 31.079,311.500 31.079 C 305.587 31.079,303.169 31.099,306.125 31.125 M345.875 31.125 C 348.144 31.151,351.856 31.151,354.125 31.125 C 356.394 31.099,354.537 31.077,350.000 31.077 C 345.462 31.077,343.606 31.099,345.875 31.125 M329.245 47.500 C 329.245 52.587,329.266 54.669,329.292 52.125 C 329.317 49.581,329.317 45.419,329.292 42.875 C 329.266 40.331,329.245 42.412,329.245 47.500 M132.246 53.667 C 132.246 60.771,132.267 63.677,132.292 60.125 C 132.317 56.573,132.317 50.760,132.292 47.208 C 132.267 43.656,132.246 46.563,132.246 53.667 M356.238 45.833 C 356.238 47.987,356.262 48.869,356.291 47.792 C 356.320 46.715,356.320 44.952,356.291 43.875 C 356.262 42.798,356.238 43.679,356.238 45.833 M356.234 64.000 C 356.234 65.421,356.259 66.002,356.291 65.292 C 356.322 64.581,356.322 63.419,356.291 62.708 C 356.259 61.998,356.234 62.579,356.234 64.000 " stroke="none" fill="#4064e4" fill-rule="evenodd"></path><path id="path4" d="M120.292 31.125 C 124.440 31.150,131.227 31.150,135.375 31.125 C 139.523 31.100,136.129 31.080,127.833 31.080 C 119.537 31.080,116.144 31.100,120.292 31.125 M153.550 31.124 C 154.356 31.155,155.631 31.155,156.383 31.124 C 157.135 31.093,156.475 31.068,154.917 31.068 C 153.358 31.068,152.743 31.094,153.550 31.124 M174.883 31.124 C 175.690 31.155,176.965 31.155,177.717 31.124 C 178.468 31.093,177.808 31.068,176.250 31.068 C 174.692 31.068,174.077 31.094,174.883 31.124 M190.050 31.124 C 190.856 31.155,192.131 31.155,192.883 31.124 C 193.635 31.093,192.975 31.068,191.417 31.068 C 189.858 31.068,189.243 31.094,190.050 31.124 M211.458 31.124 C 212.215 31.155,213.452 31.155,214.208 31.124 C 214.965 31.093,214.346 31.068,212.833 31.068 C 211.321 31.068,210.702 31.093,211.458 31.124 M251.717 31.124 C 252.523 31.155,253.798 31.155,254.550 31.124 C 255.302 31.093,254.642 31.068,253.083 31.068 C 251.525 31.068,250.910 31.094,251.717 31.124 M270.220 31.125 C 273.229 31.150,278.104 31.150,281.054 31.125 C 284.003 31.099,281.542 31.079,275.583 31.079 C 269.625 31.079,267.212 31.099,270.220 31.125 M306.125 31.125 C 309.081 31.150,313.919 31.150,316.875 31.125 C 319.831 31.099,317.412 31.079,311.500 31.079 C 305.587 31.079,303.169 31.099,306.125 31.125 M345.875 31.125 C 348.144 31.151,351.856 31.151,354.125 31.125 C 356.394 31.099,354.537 31.077,350.000 31.077 C 345.462 31.077,343.606 31.099,345.875 31.125 M329.245 47.500 C 329.245 52.587,329.266 54.669,329.292 52.125 C 329.317 49.581,329.317 45.419,329.292 42.875 C 329.266 40.331,329.245 42.412,329.245 47.500 M132.246 53.667 C 132.246 60.771,132.267 63.677,132.292 60.125 C 132.317 56.573,132.317 50.760,132.292 47.208 C 132.267 43.656,132.246 46.563,132.246 53.667 M356.238 45.833 C 356.238 47.987,356.262 48.869,356.291 47.792 C 356.320 46.715,356.320 44.952,356.291 43.875 C 356.262 42.798,356.238 43.679,356.238 45.833 M356.234 64.000 C 356.234 65.421,356.259 66.002,356.291 65.292 C 356.322 64.581,356.322 63.419,356.291 62.708 C 356.259 61.998,356.234 62.579,356.234 64.000 " stroke="none" fill="#4064e4" fill-rule="evenodd"></path></g></svg>